<svg width="541" height="136" viewBox="0 0 541 136" fill="none" xmlns="http://www.w3.org/2000/svg">
<path fill-rule="evenodd" clip-rule="evenodd" d="M9.90887 10.0057C3.83094 16.0918 0.0724487 24.4949 0.0724487 33.7757V67.6522V101.529C0.0724487 120.107 15.133 135.167 33.7111 135.167H67.3498C35.635 135.167 19.7775 135.167 9.92499 125.315C0.0724487 115.462 0.0724487 99.5256 0.0724487 67.6522C0.0724487 35.7962 0.0724492 19.8595 9.90887 10.0057ZM9.94113 9.97344C9.93037 9.98419 9.91961 9.99495 9.90887 10.0057C9.91424 10.0003 9.91961 9.99495 9.92499 9.98957C9.93037 9.98419 9.93575 9.97881 9.94113 9.97344ZM67.3498 0.137024C35.6523 0.137024 19.7949 0.137024 9.94113 9.97344C16.0273 3.89551 24.4303 0.137024 33.7111 0.137024H67.3498ZM469.746 0.137024C501.492 0.137024 517.364 0.137024 527.764 9.30442C527.831 9.36337 527.898 9.42231 527.964 9.48173C521.472 3.67061 512.899 0.137024 503.501 0.137024H469.746ZM530.661 12.1585C530.784 12.2935 530.906 12.4297 531.026 12.5665C540.194 22.9664 540.194 38.8388 540.194 70.5835V36.83C540.194 27.3308 536.584 18.6747 530.661 12.1585ZM540.194 70.5842C540.194 99.6869 540.194 114.238 531.789 123.772C537.02 117.843 540.194 110.057 540.194 101.529V70.5842ZM528.873 126.698C528.848 126.72 528.823 126.741 528.799 126.763C519.265 135.167 504.713 135.167 475.611 135.167H506.555C515.118 135.167 522.934 131.968 528.873 126.698Z" fill="#FF0000"/>
<path d="M71.9764 87.5824C71.9764 86.0578 71.2141 84.8641 69.6895 84.0011C68.1938 83.1094 65.7775 82.3184 62.4407 81.628C51.3374 79.298 45.7858 74.5806 45.7858 67.4756C45.7858 63.3334 47.4973 59.8816 50.9203 57.1201C54.3721 54.3299 58.8739 52.9348 64.4255 52.9348C70.3511 52.9348 75.083 54.3299 78.6211 57.1201C82.188 59.9104 83.9714 63.5348 83.9714 67.9933H71.5017C71.5017 66.2099 70.9264 64.7429 69.7758 63.5923C68.6252 62.4129 66.8274 61.8232 64.3824 61.8232C62.2825 61.8232 60.6573 62.2979 59.5067 63.2471C58.3561 64.1964 57.7808 65.4045 57.7808 66.8715C57.7808 68.2522 58.428 69.3741 59.7224 70.237C61.0456 71.0712 63.2605 71.8047 66.3672 72.4376C69.4738 73.0416 72.0914 73.732 74.22 74.5086C80.8073 76.9249 84.1009 81.1102 84.1009 87.0646C84.1009 91.3218 82.2743 94.7736 78.6211 97.42C74.9679 100.038 70.2505 101.346 64.4687 101.346C60.5566 101.346 57.0761 100.656 54.027 99.2754C51.0066 97.8659 48.6335 95.953 46.9076 93.5368C45.1817 91.0917 44.3187 88.4597 44.3187 85.6407H56.1412C56.2562 87.8556 57.0761 89.5528 58.6006 90.7322C60.1252 91.9115 62.1675 92.5012 64.7276 92.5012C67.1151 92.5012 68.9129 92.0553 70.121 91.1636C71.3579 90.2431 71.9764 89.0494 71.9764 87.5824ZM90.2278 76.7092C90.2278 69.3741 91.8531 63.5779 95.1035 59.3207C98.3827 55.0634 102.87 52.9348 108.566 52.9348C113.571 52.9348 117.555 54.8477 120.517 58.6735L121.337 53.7978H132.297V118.433H119.784V96.4708C116.907 99.7212 113.139 101.346 108.479 101.346C102.928 101.346 98.4978 99.1891 95.1898 94.8743C91.8818 90.5596 90.2278 84.5045 90.2278 76.7092ZM102.697 77.6153C102.697 82.0739 103.474 85.4681 105.027 87.7981C106.61 90.1281 108.824 91.2931 111.672 91.2931C115.498 91.2931 118.202 89.7685 119.784 86.7194V67.4324C118.231 64.4984 115.555 63.0314 111.758 63.0314C108.882 63.0314 106.653 64.1964 105.071 66.5263C103.489 68.8563 102.697 72.5526 102.697 77.6153ZM170.094 95.7373C167.016 99.4767 162.759 101.346 157.322 101.346C152.317 101.346 148.492 99.9082 145.845 97.0317C143.228 94.1552 141.89 89.9411 141.832 84.3894V53.7978H154.302V83.958C154.302 88.8193 156.517 91.2499 160.947 91.2499C165.175 91.2499 168.081 89.7829 169.663 86.8489V53.7978H182.175V100.484H170.439L170.094 95.7373ZM204.742 100.484H192.229V53.7978H204.742V100.484ZM191.495 41.7164C191.495 39.8467 192.114 38.3078 193.351 37.0996C194.616 35.8915 196.328 35.2874 198.485 35.2874C200.614 35.2874 202.311 35.8915 203.577 37.0996C204.842 38.3078 205.475 39.8467 205.475 41.7164C205.475 43.6149 204.828 45.1682 203.534 46.3764C202.268 47.5845 200.585 48.1886 198.485 48.1886C196.385 48.1886 194.688 47.5845 193.394 46.3764C192.128 45.1682 191.495 43.6149 191.495 41.7164ZM241.288 65.4908C239.591 65.2607 238.095 65.1456 236.8 65.1456C232.083 65.1456 228.991 66.7421 227.524 69.935V100.484H215.054V53.7978H226.833L227.178 59.3638C229.681 55.0778 233.147 52.9348 237.577 52.9348C238.958 52.9348 240.252 53.1218 241.46 53.4957L241.288 65.4908ZM265.882 91.2931C268.183 91.2931 270.053 90.6602 271.491 89.3946C272.929 88.1289 273.677 86.4462 273.735 84.3463H285.428C285.399 87.5105 284.536 90.4157 282.839 93.0621C281.142 95.6797 278.812 97.7221 275.849 99.1891C272.915 100.627 269.664 101.346 266.098 101.346C259.424 101.346 254.16 99.2322 250.306 95.0038C246.451 90.7465 244.524 84.8785 244.524 77.3995V76.5797C244.524 69.3885 246.437 63.6498 250.262 59.3638C254.088 55.0778 259.338 52.9348 266.011 52.9348C271.851 52.9348 276.525 54.6032 280.034 57.9399C283.572 61.2479 285.37 65.6634 285.428 71.1863H273.735C273.677 68.77 272.929 66.814 271.491 65.3182C270.053 63.7936 268.154 63.0314 265.796 63.0314C262.89 63.0314 260.69 64.0957 259.194 66.2243C257.727 68.3241 256.993 71.7472 256.993 76.4934V77.7879C256.993 82.5916 257.727 86.0434 259.194 88.1433C260.661 90.2431 262.89 91.2931 265.882 91.2931ZM305.707 100.484H293.194V34.2087H305.707V100.484ZM329.179 100.484H316.667V53.7978H329.179V100.484ZM315.933 41.7164C315.933 39.8467 316.552 38.3078 317.788 37.0996C319.054 35.8915 320.766 35.2874 322.923 35.2874C325.052 35.2874 326.749 35.8915 328.014 37.0996C329.28 38.3078 329.913 39.8467 329.913 41.7164C329.913 43.6149 329.266 45.1682 327.971 46.3764C326.706 47.5845 325.023 48.1886 322.923 48.1886C320.823 48.1886 319.126 47.5845 317.832 46.3764C316.566 45.1682 315.933 43.6149 315.933 41.7164ZM342.9 100.484V62.9451H335.954V53.7978H342.9V49.8282C342.9 44.5929 344.396 40.5371 347.388 37.6606C350.408 34.7553 354.622 33.3026 360.03 33.3026C361.756 33.3026 363.87 33.5903 366.373 34.1656L366.243 43.8307C365.208 43.5718 363.942 43.4423 362.446 43.4423C357.758 43.4423 355.413 45.6429 355.413 50.0439V53.7978H364.69V62.9451H355.413V100.484H342.9ZM388.594 82.8361L397.223 53.7978H410.599L391.83 107.732L390.794 110.192C388.004 116.29 383.402 119.339 376.987 119.339C375.175 119.339 373.334 119.066 371.464 118.519V109.07L373.363 109.113C375.721 109.113 377.476 108.753 378.627 108.034C379.806 107.315 380.727 106.121 381.388 104.453L382.855 100.613L366.502 53.7978H379.921L388.594 82.8361ZM408.916 94.3566C408.916 92.3718 409.578 90.7609 410.901 89.524C412.253 88.2871 413.936 87.6687 415.949 87.6687C417.992 87.6687 419.674 88.2871 420.998 89.524C422.35 90.7609 423.026 92.3718 423.026 94.3566C423.026 96.3126 422.364 97.909 421.041 99.1459C419.718 100.354 418.02 100.958 415.949 100.958C413.907 100.958 412.224 100.354 410.901 99.1459C409.578 97.909 408.916 96.3126 408.916 94.3566ZM447.188 53.7978V103.029C447.188 108.178 445.822 112.177 443.089 115.024C440.357 117.901 436.416 119.339 431.267 119.339C429.109 119.339 427.053 119.095 425.097 118.606V108.725C426.592 108.984 427.901 109.113 429.023 109.113C432.791 109.113 434.675 107.114 434.675 103.116V53.7978H447.188ZM433.683 41.7164C433.683 39.8467 434.302 38.3078 435.538 37.0996C436.804 35.8915 438.516 35.2874 440.673 35.2874C442.83 35.2874 444.528 35.8915 445.764 37.0996C447.03 38.3078 447.663 39.8467 447.663 41.7164C447.663 43.6149 447.016 45.1682 445.721 46.3764C444.456 47.5845 442.773 48.1886 440.673 48.1886C438.573 48.1886 436.876 47.5845 435.582 46.3764C434.316 45.1682 433.683 43.6149 433.683 41.7164ZM482.224 87.5824C482.224 86.0578 481.462 84.8641 479.937 84.0011C478.442 83.1094 476.025 82.3184 472.689 81.628C461.585 79.298 456.034 74.5806 456.034 67.4756C456.034 63.3334 457.745 59.8816 461.168 57.1201C464.62 54.3299 469.122 52.9348 474.673 52.9348C480.599 52.9348 485.331 54.3299 488.869 57.1201C492.436 59.9104 494.219 63.5348 494.219 67.9933H481.75C481.75 66.2099 481.174 64.7429 480.024 63.5923C478.873 62.4129 477.075 61.8232 474.63 61.8232C472.53 61.8232 470.905 62.2979 469.754 63.2471C468.604 64.1964 468.029 65.4045 468.029 66.8715C468.029 68.2522 468.676 69.3741 469.97 70.237C471.293 71.0712 473.508 71.8047 476.615 72.4376C479.722 73.0416 482.339 73.732 484.468 74.5086C491.055 76.9249 494.349 81.1102 494.349 87.0646C494.349 91.3218 492.522 94.7736 488.869 97.42C485.216 100.038 480.498 101.346 474.716 101.346C470.804 101.346 467.324 100.656 464.275 99.2754C461.254 97.8659 458.881 95.953 457.155 93.5368C455.429 91.0917 454.567 88.4597 454.567 85.6407H466.389C466.504 87.8556 467.324 89.5528 468.848 90.7322C470.373 91.9115 472.415 92.5012 474.975 92.5012C477.363 92.5012 479.161 92.0553 480.369 91.1636C481.606 90.2431 482.224 89.0494 482.224 87.5824Z" fill="#999999"/>
</svg>
