<svg width="540" height="135" viewBox="0 0 540 135" fill="none" xmlns="http://www.w3.org/2000/svg">
<path fill-rule="evenodd" clip-rule="evenodd" d="M9.82646 9.87369C3.75447 15.9579 0 24.356 0 33.6311V55H0.0272102C0.19377 31.304 1.37988 18.3424 9.82646 9.87369ZM0 101.369V79H0.0208062C0.162158 103.355 1.26381 116.563 9.84978 125.15C19.6996 135 35.5526 135 67.2585 135H33.6293C15.0563 135 0 119.943 0 101.369ZM9.87314 9.827C19.7246 -1.90735e-06 35.5776 0 67.2585 0H33.6293C24.3547 0 15.957 3.75468 9.87314 9.827ZM469.543 0C501.279 0 517.147 0 527.544 9.16534C527.644 9.25338 527.743 9.3417 527.842 9.4308C521.341 3.56856 512.731 0 503.287 0H469.543ZM539.919 55H539.97L539.97 36.6848C539.97 27.1877 536.361 18.5335 530.44 12.0188C530.563 12.1538 530.685 12.2899 530.805 12.4267C538.346 20.9823 539.682 33.2425 539.919 55ZM539.97 79H539.961C539.88 102.482 539.101 115.061 531.568 123.608L531.539 123.641L531.503 123.682C536.771 117.745 539.97 109.931 539.97 101.369L539.97 79ZM528.578 126.598C519.047 135 504.499 135 475.405 135H506.341C514.902 135 522.716 131.801 528.652 126.533C528.628 126.555 528.603 126.576 528.578 126.598Z" fill="#FF0000"/>
<path d="M71.9764 87.5837C71.9764 86.0591 71.2141 84.8654 69.6895 84.0024C68.1938 83.1107 65.7775 82.3197 62.4407 81.6293C51.3374 79.2993 45.7858 74.5819 45.7858 67.4769C45.7858 63.3347 47.4973 59.8829 50.9203 57.1215C54.3721 54.3312 58.8739 52.9361 64.4255 52.9361C70.3511 52.9361 75.083 54.3312 78.6211 57.1215C82.188 59.9117 83.9714 63.5361 83.9714 67.9947H71.5017C71.5017 66.2112 70.9264 64.7442 69.7758 63.5936C68.6252 62.4142 66.8274 61.8245 64.3824 61.8245C62.2825 61.8245 60.6573 62.2992 59.5067 63.2484C58.3561 64.1977 57.7808 65.4058 57.7808 66.8728C57.7808 68.2535 58.428 69.3754 59.7224 70.2383C61.0456 71.0725 63.2605 71.806 66.3672 72.4389C69.4738 73.0429 72.0914 73.7333 74.22 74.51C80.8073 76.9262 84.1009 81.1115 84.1009 87.0659C84.1009 91.3232 82.2743 94.775 78.6211 97.4214C74.9679 100.039 70.2505 101.348 64.4687 101.348C60.5566 101.348 57.0761 100.657 54.027 99.2767C51.0066 97.8672 48.6335 95.9543 46.9076 93.5381C45.1817 91.093 44.3187 88.461 44.3187 85.642H56.1412C56.2562 87.857 57.0761 89.5541 58.6006 90.7335C60.1252 91.9128 62.1675 92.5025 64.7276 92.5025C67.1151 92.5025 68.9129 92.0567 70.121 91.1649C71.3579 90.2445 71.9764 89.0507 71.9764 87.5837ZM90.2278 76.7105C90.2278 69.3754 91.8531 63.5792 95.1035 59.322C98.3827 55.0647 102.87 52.9361 108.566 52.9361C113.571 52.9361 117.555 54.849 120.517 58.6748L121.337 53.7991H132.297V118.434H119.784V96.4721C116.907 99.7226 113.139 101.348 108.479 101.348C102.928 101.348 98.4978 99.1904 95.1898 94.8756C91.8818 90.5609 90.2278 84.5058 90.2278 76.7105ZM102.697 77.6166C102.697 82.0752 103.474 85.4695 105.027 87.7994C106.61 90.1294 108.824 91.2944 111.672 91.2944C115.498 91.2944 118.202 89.7698 119.784 86.7207V67.4337C118.231 64.4997 115.555 63.0327 111.758 63.0327C108.882 63.0327 106.653 64.1977 105.071 66.5276C103.489 68.8576 102.697 72.5539 102.697 77.6166ZM170.094 95.7386C167.016 99.4781 162.759 101.348 157.322 101.348C152.317 101.348 148.492 99.9095 145.845 97.033C143.228 94.1565 141.89 89.9424 141.832 84.3908V53.7991H154.302V83.9593C154.302 88.8206 156.517 91.2512 160.947 91.2512C165.175 91.2512 168.081 89.7842 169.663 86.8502V53.7991H182.175V100.485H170.439L170.094 95.7386ZM204.742 100.485H192.229V53.7991H204.742V100.485ZM191.495 41.7177C191.495 39.848 192.114 38.3091 193.351 37.1009C194.616 35.8928 196.328 35.2887 198.485 35.2887C200.614 35.2887 202.311 35.8928 203.577 37.1009C204.842 38.3091 205.475 39.848 205.475 41.7177C205.475 43.6162 204.828 45.1696 203.534 46.3777C202.268 47.5858 200.585 48.1899 198.485 48.1899C196.385 48.1899 194.688 47.5858 193.394 46.3777C192.128 45.1696 191.495 43.6162 191.495 41.7177ZM241.288 65.4921C239.591 65.262 238.095 65.1469 236.8 65.1469C232.083 65.1469 228.991 66.7434 227.524 69.9363V100.485H215.054V53.7991H226.833L227.178 59.3651C229.681 55.0791 233.147 52.9361 237.577 52.9361C238.958 52.9361 240.252 53.1231 241.46 53.4971L241.288 65.4921ZM265.882 91.2944C268.183 91.2944 270.053 90.6616 271.491 89.3959C272.929 88.1302 273.677 86.4475 273.735 84.3476H285.428C285.399 87.5118 284.536 90.417 282.839 93.0634C281.142 95.6811 278.812 97.7234 275.849 99.1904C272.915 100.629 269.664 101.348 266.098 101.348C259.424 101.348 254.16 99.2336 250.306 95.0051C246.451 90.7478 244.524 84.8798 244.524 77.4008V76.581C244.524 69.3898 246.437 63.6511 250.262 59.3651C254.088 55.0791 259.338 52.9361 266.011 52.9361C271.851 52.9361 276.525 54.6045 280.034 57.9413C283.572 61.2492 285.37 65.6647 285.428 71.1876H273.735C273.677 68.7713 272.929 66.8153 271.491 65.3195C270.053 63.795 268.154 63.0327 265.796 63.0327C262.89 63.0327 260.69 64.097 259.194 66.2256C257.727 68.3255 256.993 71.7485 256.993 76.4947V77.7892C256.993 82.5929 257.727 86.0448 259.194 88.1446C260.661 90.2445 262.89 91.2944 265.882 91.2944ZM305.707 100.485H293.194V34.2101H305.707V100.485ZM329.179 100.485H316.667V53.7991H329.179V100.485ZM315.933 41.7177C315.933 39.848 316.552 38.3091 317.788 37.1009C319.054 35.8928 320.766 35.2887 322.923 35.2887C325.052 35.2887 326.749 35.8928 328.014 37.1009C329.28 38.3091 329.913 39.848 329.913 41.7177C329.913 43.6162 329.266 45.1696 327.971 46.3777C326.706 47.5858 325.023 48.1899 322.923 48.1899C320.823 48.1899 319.126 47.5858 317.832 46.3777C316.566 45.1696 315.933 43.6162 315.933 41.7177ZM342.9 100.485V62.9464H335.954V53.7991H342.9V49.8295C342.9 44.5943 344.396 40.5384 347.388 37.6619C350.408 34.7566 354.622 33.304 360.03 33.304C361.756 33.304 363.87 33.5916 366.373 34.1669L366.243 43.832C365.208 43.5731 363.942 43.4436 362.446 43.4436C357.758 43.4436 355.413 45.6442 355.413 50.0452V53.7991H364.69V62.9464H355.413V100.485H342.9ZM388.594 82.8374L397.223 53.7991H410.599L391.83 107.734L390.794 110.193C388.004 116.291 383.402 119.34 376.987 119.34C375.175 119.34 373.334 119.067 371.464 118.521V109.071L373.363 109.114C375.721 109.114 377.476 108.755 378.627 108.036C379.806 107.317 380.727 106.123 381.388 104.454L382.855 100.614L366.502 53.7991H379.921L388.594 82.8374ZM408.916 94.3579C408.916 92.3731 409.578 90.7622 410.901 89.5253C412.253 88.2884 413.936 87.67 415.949 87.67C417.992 87.67 419.674 88.2884 420.998 89.5253C422.35 90.7622 423.026 92.3731 423.026 94.3579C423.026 96.3139 422.364 97.9104 421.041 99.1473C419.718 100.355 418.02 100.959 415.949 100.959C413.907 100.959 412.224 100.355 410.901 99.1473C409.578 97.9104 408.916 96.3139 408.916 94.3579ZM447.188 53.7991V103.031C447.188 108.179 445.822 112.178 443.089 115.026C440.357 117.902 436.416 119.34 431.267 119.34C429.109 119.34 427.053 119.096 425.097 118.607V108.726C426.592 108.985 427.901 109.114 429.023 109.114C432.791 109.114 434.675 107.115 434.675 103.117V53.7991H447.188ZM433.683 41.7177C433.683 39.848 434.302 38.3091 435.538 37.1009C436.804 35.8928 438.516 35.2887 440.673 35.2887C442.83 35.2887 444.528 35.8928 445.764 37.1009C447.03 38.3091 447.663 39.848 447.663 41.7177C447.663 43.6162 447.016 45.1696 445.721 46.3777C444.456 47.5858 442.773 48.1899 440.673 48.1899C438.573 48.1899 436.876 47.5858 435.582 46.3777C434.316 45.1696 433.683 43.6162 433.683 41.7177ZM482.224 87.5837C482.224 86.0591 481.462 84.8654 479.937 84.0024C478.442 83.1107 476.025 82.3197 472.689 81.6293C461.585 79.2993 456.034 74.5819 456.034 67.4769C456.034 63.3347 457.745 59.8829 461.168 57.1215C464.62 54.3312 469.122 52.9361 474.673 52.9361C480.599 52.9361 485.331 54.3312 488.869 57.1215C492.436 59.9117 494.219 63.5361 494.219 67.9947H481.75C481.75 66.2112 481.174 64.7442 480.024 63.5936C478.873 62.4142 477.075 61.8245 474.63 61.8245C472.53 61.8245 470.905 62.2992 469.754 63.2484C468.604 64.1977 468.029 65.4058 468.029 66.8728C468.029 68.2535 468.676 69.3754 469.97 70.2383C471.293 71.0725 473.508 71.806 476.615 72.4389C479.722 73.0429 482.339 73.7333 484.468 74.51C491.055 76.9262 494.349 81.1115 494.349 87.0659C494.349 91.3232 492.522 94.775 488.869 97.4214C485.216 100.039 480.498 101.348 474.716 101.348C470.804 101.348 467.324 100.657 464.275 99.2767C461.254 97.8672 458.881 95.9543 457.155 93.5381C455.429 91.093 454.567 88.461 454.567 85.642H466.389C466.504 87.857 467.324 89.5541 468.848 90.7335C470.373 91.9128 472.415 92.5025 474.975 92.5025C477.363 92.5025 479.161 92.0567 480.369 91.1649C481.606 90.2445 482.224 89.0507 482.224 87.5837Z" fill="#999999"/>
</svg>
